<?xml version="1.0" encoding="UTF-8" ?>
<!DOCTYPE svg PUBLIC "-//W3C//DTD SVG 1.1//EN" "http://www.w3.org/Graphics/SVG/1.1/DTD/svg11.dtd">
<svg width="130pt" height="168pt" viewBox="0 0 130 168" version="1.1" xmlns="http://www.w3.org/2000/svg">
<g id="#ffffffff">
</g>
<g id="#a88a24ff">
<path fill="#a88a24" opacity="1.00" d=" M 63.53 3.52 C 64.79 2.64 66.31 3.07 67.72 3.13 C 68.29 14.91 67.71 26.70 68.05 38.48 C 71.01 39.04 73.94 39.71 76.86 40.45 C 80.29 32.68 83.48 24.78 87.12 17.12 C 88.18 14.69 92.52 16.47 91.08 18.95 C 88.10 26.91 84.30 34.55 81.06 42.41 C 83.83 43.82 86.34 45.67 88.65 47.75 C 96.30 40.05 103.78 32.18 111.41 24.45 C 112.64 23.36 114.32 21.11 115.87 23.08 C 118.22 24.65 115.78 27.13 114.47 28.46 C 106.85 36.05 99.71 44.08 92.20 51.77 C 93.41 53.68 94.61 55.59 95.78 57.52 C 102.24 55.05 108.70 52.61 115.12 50.04 C 116.74 49.47 118.37 48.69 120.13 48.72 C 122.51 48.53 122.70 52.83 120.66 53.33 C 111.43 56.99 101.98 60.07 92.75 63.73 C 90.89 59.38 89.08 54.77 85.51 51.49 C 78.33 44.66 67.40 41.46 57.84 44.61 C 48.65 47.13 41.40 54.75 38.47 63.70 C 29.07 59.97 19.45 56.85 9.94 53.45 C 10.19 51.86 10.33 48.73 12.71 49.28 C 20.49 51.70 28.04 54.83 35.75 57.49 C 37.00 55.33 38.34 53.22 39.74 51.15 C 32.62 43.63 25.32 36.28 18.14 28.81 C 16.93 27.45 15.50 26.13 15.06 24.30 C 15.58 22.73 17.72 21.41 18.96 23.04 C 27.25 30.90 34.88 39.46 42.82 47.69 C 45.24 45.40 48.02 43.56 50.97 42.02 C 47.84 34.24 44.02 26.75 40.91 18.97 C 39.57 16.66 44.11 14.52 44.94 17.24 C 48.67 24.70 51.83 32.45 55.21 40.07 C 57.79 39.58 60.37 39.07 62.95 38.56 C 63.15 28.36 63.02 18.16 63.02 7.96 C 63.07 6.47 63.00 4.93 63.53 3.52 Z" />
<path fill="#a88a24" opacity="1.00" d=" M 118.50 64.66 C 121.35 64.21 124.19 63.29 127.09 63.46 C 129.02 63.95 129.48 65.97 128.52 67.54 C 125.16 68.95 121.48 69.23 117.96 70.01 C 88.68 76.01 62.79 94.45 45.77 118.78 C 44.65 120.30 43.52 121.89 41.92 122.96 C 40.75 122.65 39.44 122.22 39.10 120.89 C 39.88 117.58 42.49 115.15 44.29 112.39 C 52.99 99.83 64.71 89.67 77.45 81.38 C 90.12 73.70 103.86 67.40 118.50 64.66 Z" />
<path fill="#a88a24" opacity="1.00" d=" M 2.99 70.19 C 23.85 64.73 46.91 68.37 65.12 79.89 C 68.65 81.32 64.78 86.07 62.33 83.70 C 51.93 78.24 40.76 73.59 28.90 72.87 C 22.56 72.27 16.16 72.64 9.90 73.82 C 7.60 74.04 4.68 75.33 2.96 73.08 C 2.97 72.36 2.98 70.92 2.99 70.19 Z" />
<path fill="#a88a24" opacity="1.00" d=" M 122.16 81.15 C 124.84 79.70 128.01 81.93 126.19 84.84 C 123.41 86.56 119.99 86.60 116.90 87.45 C 106.88 89.95 97.21 93.99 88.50 99.55 C 77.86 106.64 69.04 116.10 61.08 126.02 C 59.96 128.58 55.58 126.63 57.27 124.09 C 71.48 101.36 96.10 86.31 122.16 81.15 Z" />
<path fill="#a88a24" opacity="1.00" d=" M 9.04 84.22 C 18.66 82.08 28.79 82.26 38.40 84.42 C 44.36 85.70 49.76 88.62 55.24 91.16 C 55.05 92.29 54.76 93.38 54.36 94.44 C 53.06 95.58 51.14 94.91 49.77 94.23 C 41.52 90.03 32.28 87.62 22.99 87.76 C 17.64 87.62 12.39 89.13 7.03 88.92 C 7.22 87.23 6.56 84.36 9.04 84.22 Z" />
<path fill="#a88a24" opacity="1.00" d=" M 15.97 99.92 C 25.21 96.58 35.30 98.49 44.24 101.85 C 43.89 103.27 43.54 104.68 43.16 106.09 C 37.48 104.96 31.86 102.89 25.98 103.27 C 23.29 103.39 20.66 104.08 17.97 104.11 C 16.05 103.67 15.09 101.69 15.97 99.92 Z" />
<path fill="#a88a24" opacity="1.00" d=" M 83.08 119.21 C 88.87 109.89 99.02 103.18 109.85 101.42 C 112.18 100.82 114.16 104.65 111.87 105.81 C 107.25 107.47 102.31 108.40 98.07 111.02 C 92.53 114.03 89.63 119.89 85.02 123.95 C 83.59 122.86 81.38 121.14 83.08 119.21 Z" />
<path fill="#a88a24" opacity="1.00" d=" M 38.49 147.25 C 38.96 146.35 39.12 144.94 40.43 145.01 C 43.63 152.62 46.84 160.24 49.72 167.99 C 45.81 168.05 45.47 163.79 44.23 161.11 C 41.40 161.09 38.57 161.09 35.74 161.09 C 34.44 163.62 34.23 168.07 30.34 167.37 C 32.89 160.60 35.90 154.01 38.49 147.25 M 36.57 158.99 C 38.84 158.99 41.11 158.99 43.39 158.99 C 42.33 156.15 41.18 153.34 40.05 150.53 C 38.86 153.34 37.48 156.08 36.57 158.99 Z" />
<path fill="#a88a24" opacity="1.00" d=" M 76.05 144.38 C 80.25 149.46 83.64 155.13 87.74 160.28 C 87.86 155.30 87.79 150.32 87.88 145.34 C 88.47 145.61 89.64 146.14 90.23 146.41 C 90.89 153.58 90.07 160.81 90.59 168.00 L 89.74 168.00 C 86.09 163.04 82.83 157.80 78.91 153.04 C 78.66 157.68 78.67 162.34 78.73 166.99 C 78.03 167.01 76.63 167.05 75.93 167.07 C 75.96 159.50 75.80 151.94 76.05 144.38 Z" />
<path fill="#a88a24" opacity="1.00" d=" M 52.12 145.77 C 52.99 145.91 54.72 146.18 55.58 146.32 C 57.75 148.89 59.46 151.80 61.45 154.51 C 64.40 151.53 65.53 145.20 70.72 145.78 C 68.30 149.60 65.55 153.21 62.93 156.89 C 62.88 160.24 62.89 163.60 62.91 166.95 C 62.18 167.05 60.73 167.25 60.00 167.35 C 59.92 163.93 60.18 160.50 59.82 157.10 C 57.63 153.08 54.51 149.67 52.12 145.77 Z" />
<path fill="#a88a24" opacity="1.00" d=" M 97.00 145.99 C 97.72 146.00 99.17 146.00 99.89 146.00 C 99.89 153.00 99.89 160.00 99.90 167.01 C 99.17 167.09 97.72 167.24 97.00 167.32 C 97.00 160.21 97.00 153.10 97.00 145.99 Z" />
</g>
</svg>
